<?xml version="1.0" encoding="utf-8"?>
<!-- Generator: Adobe Illustrator 16.0.0, SVG Export Plug-In . SVG Version: 6.00 Build 0)  -->
<!DOCTYPE svg PUBLIC "-//W3C//DTD SVG 1.1//EN" "http://www.w3.org/Graphics/SVG/1.1/DTD/svg11.dtd">
<svg version="1.1"
	 id="Layer_1" text-rendering="geometricPrecision" shape-rendering="geometricPrecision" image-rendering="optimizeQuality"
	 xmlns="http://www.w3.org/2000/svg" xmlns:xlink="http://www.w3.org/1999/xlink" x="0px" y="0px" width="1619.972px"
	 height="139.811px" viewBox="14.728 1.999 1619.972 139.811" enable-background="new 14.728 1.999 1619.972 139.811"
	 xml:space="preserve">
<path stroke="#1F1A17" stroke-width="0.5518" d="M0.355,2.001v4.838h12.947c3.909,0,7.056,1.16,7.056,2.604v12.461
	c0,1.44-3.147,2.603-7.056,2.603H0.355v95.1h15.851c3.91,0,7.057,1.16,7.057,2.604v12.432c0,1.441-3.146,2.604-7.057,2.604H0.355
	v4.012H1620.7v-30.066h-38.92V33.076h38.92V1.999H0.355V2.001z M44.259,6.839h21.744c3.908,0,7.135,1.16,7.135,2.604v12.461
	c0,1.44-3.229,2.603-7.135,2.603H44.259c-3.909,0-7.056-1.16-7.056-2.603V9.442C37.207,7.999,40.35,6.839,44.259,6.839z
	 M96.959,6.839h21.824c3.91,0,7.056,1.16,7.056,2.604v12.461c0,1.44-3.146,2.603-7.056,2.603H96.959
	c-3.909,0-7.056-1.16-7.056-2.603V9.442C89.904,7.999,93.052,6.839,96.959,6.839z M149.742,6.839h21.743
	c3.909,0,7.056,1.16,7.056,2.604v12.461c0,1.44-3.147,2.603-7.056,2.603h-21.743c-3.91,0-7.058-1.16-7.058-2.603V9.442
	C142.685,7.999,145.833,6.839,149.742,6.839z M202.437,6.839h21.825c3.91,0,7.057,1.16,7.057,2.604v12.461
	c0,1.44-3.144,2.603-7.057,2.603h-21.825c-3.908,0-7.055-1.16-7.055-2.603V9.442C195.387,7.999,198.531,6.839,202.437,6.839z
	 M255.222,6.839h21.742c3.91,0,7.058,1.16,7.058,2.604v12.461c0,1.44-3.148,2.603-7.058,2.603h-21.743
	c-3.91,0-7.056-1.16-7.056-2.603V9.442C248.168,7.999,251.312,6.839,255.222,6.839z M307.921,6.839h21.828
	c3.909,0,7.051,1.16,7.051,2.604v12.461c0,1.44-3.142,2.603-7.051,2.603h-21.828c-3.909,0-7.056-1.16-7.056-2.603V9.442
	C300.867,7.999,304.013,6.839,307.921,6.839z M360.706,6.839h21.739c3.91,0,7.058,1.16,7.058,2.604v12.461
	c0,1.44-3.145,2.603-7.058,2.603h-21.739c-3.91,0-7.058-1.16-7.058-2.603V9.442C353.649,7.999,356.794,6.839,360.706,6.839z
	 M413.402,6.839h21.828c3.912,0,7.057,1.16,7.057,2.604v12.461c0,1.44-3.145,2.603-7.057,2.603h-21.828
	c-3.907,0-7.054-1.16-7.054-2.603V9.442C406.348,7.999,409.495,6.839,413.402,6.839z M466.189,6.839h21.739
	c3.911,0,7.059,1.16,7.059,2.604v12.461c0,1.44-3.146,2.603-7.059,2.603h-21.739c-3.912,0-7.137-1.16-7.137-2.603V9.442
	C459.046,7.999,462.276,6.839,466.189,6.839z M518.885,6.839h21.828c3.909,0,7.054,1.16,7.054,2.604v12.461
	c0,1.44-3.145,2.603-7.054,2.603h-21.828c-3.909,0-7.054-1.16-7.054-2.603V9.442C511.831,7.999,514.976,6.839,518.885,6.839z
	 M571.585,6.839h21.826c3.908,0,7.056,1.16,7.056,2.604v12.461c0,1.44-3.143,2.603-7.056,2.603h-21.826
	c-3.906,0-7.055-1.16-7.055-2.603V9.442C564.53,7.999,567.679,6.839,571.585,6.839z M624.374,6.839h21.823
	c3.91,0,7.056,1.16,7.056,2.604v12.461c0,1.44-3.146,2.603-7.056,2.603h-21.823c-3.911,0-7.059-1.16-7.059-2.603V9.442
	C617.315,7.999,620.459,6.839,624.374,6.839z M677.069,6.839h21.828c3.909,0,7.057,1.16,7.057,2.604v12.461
	c0,1.44-3.147,2.603-7.057,2.603h-21.828c-3.906,0-7.054-1.16-7.054-2.603V9.442C670.015,7.999,673.163,6.839,677.069,6.839z
	 M729.854,6.839h21.823c3.911,0,7.059,1.16,7.059,2.604v12.461c0,1.44-3.145,2.603-7.059,2.603h-21.823
	c-3.908,0-7.056-1.16-7.056-2.603V9.442C722.798,7.999,725.944,6.839,729.854,6.839z M782.551,6.839h21.828
	c3.91,0,7.052,1.16,7.052,2.604v12.461c0,1.44-3.142,2.603-7.052,2.603h-21.828c-3.909,0-7.054-1.16-7.054-2.603V9.442
	C775.499,7.999,778.644,6.839,782.551,6.839z M835.332,6.839h21.828c3.906,0,7.057,1.16,7.057,2.604v12.461
	c0,1.44-3.143,2.603-7.057,2.603h-21.828c-3.906,0-7.057-1.16-7.057-2.603V9.442C828.283,7.999,831.425,6.839,835.332,6.839z
	 M888.034,6.839h21.827c3.906,0,7.052,1.16,7.052,2.604v12.461c0,1.44-3.146,2.603-7.052,2.603h-21.827
	c-3.907,0-7.058-1.16-7.058-2.603V9.442C880.976,7.999,884.126,6.839,888.034,6.839z M940.815,6.839h21.828
	c3.906,0,7.057,1.16,7.057,2.604v12.461c0,1.44-3.145,2.603-7.057,2.603h-21.828c-3.906,0-7.057-1.16-7.057-2.603V9.442
	C933.764,7.999,936.909,6.839,940.815,6.839z M993.517,6.839h21.827c3.906,0,7.057,1.16,7.057,2.604v12.461
	c0,1.44-3.15,2.603-7.057,2.603h-21.827c-3.907,0-7.058-1.16-7.058-2.603V9.442C986.459,7.999,989.605,6.839,993.517,6.839z
	 M1046.299,6.839h21.824c3.909,0,7.058,1.16,7.058,2.604v12.461c0,1.44-3.143,2.603-7.058,2.603h-21.824
	c-3.909,0-7.058-1.16-7.058-2.603V9.442C1039.248,7.999,1042.39,6.839,1046.299,6.839z M1099,6.839h21.825
	c3.909,0,7.057,1.16,7.057,2.604v12.461c0,1.44-3.147,2.603-7.057,2.603H1099c-3.909,0-7.057-1.16-7.057-2.603V9.442
	C1091.944,7.999,1095.088,6.839,1099,6.839z M1151.78,6.839h21.828c3.906,0,7.057,1.16,7.057,2.604v12.461
	c0,1.44-3.146,2.603-7.057,2.603h-21.828c-3.906,0-7.057-1.16-7.057-2.603V9.442C1144.723,7.999,1147.874,6.839,1151.78,6.839z
	 M1204.481,6.839h21.828c3.906,0,7.052,1.16,7.052,2.604v12.461c0,1.44-3.146,2.603-7.052,2.603h-21.828
	c-3.906,0-7.057-1.16-7.057-2.603V9.442C1197.424,7.999,1200.57,6.839,1204.481,6.839z M1257.263,6.839h21.742
	c3.906,0,7.057,1.16,7.057,2.604v12.461c0,1.44-3.15,2.603-7.057,2.603h-21.742c-3.909,0-7.057-1.16-7.057-2.603V9.442
	C1250.207,7.999,1253.354,6.839,1257.263,6.839z M1309.965,6.839h21.827c3.907,0,7.052,1.16,7.052,2.604v12.461
	c0,1.44-3.145,2.603-7.052,2.603h-21.827c-3.906,0-7.057-1.16-7.057-2.603V9.442C1302.909,7.999,1306.053,6.839,1309.965,6.839z
	 M1362.745,6.839h21.744c3.906,0,7.057,1.16,7.057,2.604v12.461c0,1.44-3.15,2.603-7.057,2.603h-21.744
	c-3.904,0-7.057-1.16-7.057-2.603V9.442C1355.688,7.999,1358.84,6.839,1362.745,6.839z M1415.446,6.839h21.83
	c3.904,0,7.049,1.16,7.049,2.604v12.461c0,1.44-3.145,2.603-7.049,2.603h-21.83c-3.903,0-7.057-1.16-7.057-2.603V9.442
	C1408.389,7.999,1411.534,6.839,1415.446,6.839z M1468.228,6.839h21.742c3.909,0,7.057,1.16,7.057,2.604v12.461
	c0,1.44-3.146,2.603-7.057,2.603h-21.742c-3.906,0-7.057-1.16-7.057-2.603V9.442C1461.171,7.999,1464.322,6.839,1468.228,6.839z
	 M1520.93,6.839h21.827c3.906,0,7.052,1.16,7.052,2.604v12.461c0.005,1.44-3.146,2.603-7.052,2.603h-21.827
	c-3.907,0-7.058-1.16-7.058-2.603V9.442C1513.873,7.999,1517.018,6.839,1520.93,6.839z M1573.625,6.839h21.828
	c3.912,0,7.057,1.16,7.057,2.604v12.461c0,1.44-3.145,2.603-7.057,2.603h-21.828c-3.906,0-7.051-1.16-7.051-2.603V9.442
	C1566.575,7.999,1569.719,6.839,1573.625,6.839z M29.825,32.374h282.251v78.106H29.825V32.374z M340.38,32.374h282.25v78.106H340.38
	V32.374z M651.009,32.374h282.253v78.106H651.009V32.374z M961.64,32.374h282.177v78.106H961.64V32.374z M1272.198,32.374h282.25
	v78.106h-282.25V32.374z M47.162,119.605h21.741c3.908,0,7.056,1.16,7.056,2.605v12.432c0,1.441-3.148,2.604-7.056,2.604H47.162
	c-3.908,0-7.056-1.16-7.056-2.604v-12.432C40.105,120.766,43.253,119.605,47.162,119.605z M99.859,119.605h21.828
	c3.908,0,7.056,1.16,7.056,2.605v12.432c0,1.441-3.148,2.604-7.056,2.604H99.859c-3.909,0-7.057-1.16-7.057-2.604v-12.432
	C92.808,120.766,95.95,119.605,99.859,119.605z M152.644,119.605h21.741c3.91,0,7.056,1.16,7.056,2.605v12.432
	c0,1.441-3.145,2.604-7.056,2.604h-21.741c-3.91,0-7.056-1.16-7.056-2.604v-12.432C145.588,120.766,148.734,119.605,152.644,119.605
	z M205.342,119.605h21.828c3.909,0,7.055,1.16,7.055,2.605v12.432c0,1.441-3.146,2.604-7.055,2.604h-21.828
	c-3.91,0-7.056-1.16-7.056-2.604v-12.432C198.289,120.766,201.433,119.605,205.342,119.605z M258.126,119.605h21.741
	c3.909,0,7.057,1.16,7.057,2.605v12.432c0,1.441-3.145,2.604-7.057,2.604h-21.741c-3.909,0-7.056-1.16-7.056-2.604v-12.432
	C251.071,120.766,254.217,119.605,258.126,119.605z M310.823,119.605h21.83c3.907,0,7.055,1.16,7.055,2.605v12.432
	c0,1.441-3.148,2.604-7.055,2.604h-21.83c-3.907,0-7.052-1.16-7.052-2.604v-12.432C303.771,120.766,306.916,119.605,310.823,119.605
	z M363.524,119.605h21.827c3.909,0,7.058,1.16,7.058,2.605v12.432c0,1.441-3.148,2.604-7.058,2.604h-21.827
	c-3.91,0-7.055-1.16-7.055-2.604v-12.432C356.472,120.766,359.616,119.605,363.524,119.605z M416.306,119.605h21.825
	c3.909,0,7.057,1.16,7.057,2.605v12.432c0,1.441-3.148,2.604-7.057,2.604h-21.825c-3.909,0-7.057-1.16-7.057-2.604v-12.432
	C409.255,120.766,412.398,119.605,416.306,119.605z M469.007,119.605h21.828c3.906,0,7.054,1.16,7.054,2.605v12.432
	c0,1.441-3.148,2.604-7.054,2.604h-21.828c-3.909,0-7.054-1.16-7.054-2.604v-12.432
	C461.953,120.766,465.098,119.605,469.007,119.605z M521.787,119.605h21.828c3.906,0,7.054,1.16,7.054,2.605v12.432
	c0,1.441-3.143,2.604-7.054,2.604h-21.828c-3.907,0-7.054-1.16-7.054-2.604v-12.432
	C514.736,120.766,517.881,119.605,521.787,119.605z M574.492,119.605h21.821c3.909,0,7.057,1.16,7.057,2.605v12.432
	c0,1.441-3.147,2.604-7.057,2.604h-21.821c-3.913,0-7.058-1.16-7.058-2.604v-12.432
	C567.437,120.766,570.579,119.605,574.492,119.605z M627.27,119.605h21.825c3.909,0,7.057,1.16,7.057,2.605v12.432
	c0,1.441-3.145,2.604-7.057,2.604H627.27c-3.906,0-7.054-1.16-7.054-2.604v-12.432C620.218,120.766,623.364,119.605,627.27,119.605z
	 M679.973,119.605h21.823c3.911,0,7.056,1.16,7.056,2.605v12.432c0,1.441-3.143,2.604-7.056,2.604h-21.823
	c-3.91,0-7.056-1.16-7.056-2.604v-12.432C672.917,120.766,676.063,119.605,679.973,119.605z M732.753,119.605h21.828
	c3.909,0,7.057,1.16,7.057,2.605v12.432c0,1.441-3.147,2.604-7.057,2.604h-21.828c-3.906,0-7.057-1.16-7.057-2.604v-12.432
	C725.703,120.766,728.847,119.605,732.753,119.605z M785.454,119.605h21.827c3.907,0,7.058,1.16,7.058,2.605v12.432
	c0,1.441-3.146,2.604-7.058,2.604h-21.827c-3.906,0-7.054-1.16-7.054-2.604v-12.432
	C778.405,120.766,781.547,119.605,785.454,119.605z M838.238,119.605h21.822c3.907,0,7.058,1.16,7.058,2.605v12.432
	c0,1.441-3.146,2.604-7.058,2.604h-21.822c-3.911,0-7.057-1.16-7.057-2.604v-12.432
	C831.181,120.766,834.327,119.605,838.238,119.605z M890.937,119.605h21.83c3.904,0,7.052,1.16,7.052,2.605v12.432
	c0,1.441-3.146,2.604-7.052,2.604h-21.83c-3.909,0-7.055-1.16-7.055-2.604v-12.432C883.882,120.766,887.028,119.605,890.937,119.605
	z M943.716,119.605h21.827c3.907,0,7.058,1.16,7.058,2.605v12.432c0,1.441-3.146,2.604-7.058,2.604h-21.827
	c-3.906,0-7.057-1.16-7.057-2.604v-12.432C936.665,120.766,939.81,119.605,943.716,119.605z M996.417,119.605h21.828
	c3.906,0,7.057,1.16,7.057,2.605v12.432c0,1.441-3.145,2.604-7.057,2.604h-21.828c-3.906,0-7.051-1.16-7.051-2.604v-12.432
	C989.367,120.766,992.511,119.605,996.417,119.605z M1049.2,119.605h21.825c3.909,0,7.057,1.16,7.057,2.605v12.432
	c0,1.441-3.145,2.604-7.057,2.604H1049.2c-3.909,0-7.057-1.16-7.057-2.604v-12.432
	C1042.146,120.766,1045.291,119.605,1049.2,119.605z M1101.902,119.605h21.824c3.909,0,7.058,1.16,7.058,2.605v12.432
	c0,1.441-3.146,2.604-7.058,2.604h-21.824c-3.907,0-7.055-1.16-7.055-2.604v-12.432
	C1094.847,120.766,1097.995,119.605,1101.902,119.605z M1154.681,119.605h21.741c3.907,0,7.058,1.16,7.058,2.605v12.432
	c0,1.441-3.143,2.604-7.058,2.604h-21.741c-3.907,0-7.058-1.16-7.058-2.604v-12.432
	C1147.632,120.766,1150.774,119.605,1154.681,119.605z M1207.382,119.605h21.828c3.906,0,7.057,1.16,7.057,2.605v12.432
	c0,1.441-3.143,2.604-7.057,2.604h-21.828c-3.906,0-7.057-1.16-7.057-2.604v-12.432
	C1200.326,120.766,1203.476,119.605,1207.382,119.605z M1260.165,119.605h21.742c3.909,0,7.051,1.16,7.051,2.605v12.432
	c0,1.441-3.14,2.604-7.051,2.604h-21.742c-3.906,0-7.057-1.16-7.057-2.604v-12.432
	C1253.113,120.766,1256.258,119.605,1260.165,119.605z M1312.866,119.605h21.828c3.906,0,7.057,1.16,7.057,2.605v12.432
	c0,1.441-3.145,2.604-7.057,2.604h-21.828c-3.906,0-7.057-1.16-7.057-2.604v-12.432
	C1305.809,120.766,1308.959,119.605,1312.866,119.605z M1365.645,119.605h21.742c3.909,0,7.057,1.16,7.057,2.605v12.432
	c0,1.441-3.142,2.604-7.057,2.604h-21.742c-3.906,0-7.057-1.16-7.057-2.604v-12.432
	C1358.594,120.766,1361.739,119.605,1365.645,119.605z M1418.347,119.605h21.827c3.907,0,7.058,1.16,7.058,2.605v12.432
	c0,1.441-3.146,2.604-7.058,2.604h-21.827c-3.906,0-7.057-1.16-7.057-2.604v-12.432
	C1411.291,120.766,1414.441,119.605,1418.347,119.605z M1471.051,119.605h21.825c3.906,0,7.054,1.16,7.054,2.605v12.432
	c0,1.441-3.147,2.604-7.054,2.604h-21.825c-3.912,0-7.057-1.16-7.057-2.604v-12.432
	C1463.995,120.766,1467.139,119.605,1471.051,119.605z M1523.831,119.605h21.828c3.906,0,7.057,1.16,7.057,2.605v12.432
	c0,1.441-3.145,2.604-7.057,2.604h-21.828c-3.906,0-7.052-1.16-7.052-2.604v-12.432
	C1516.779,120.766,1519.924,119.605,1523.831,119.605z M1576.532,119.605h21.828c3.906,0,7.057,1.16,7.057,2.605v12.432
	c0,1.441-3.15,2.604-7.057,2.604h-21.828c-3.911,0-7.057-1.16-7.057-2.604v-12.432
	C1569.475,120.766,1572.621,119.605,1576.532,119.605z"/>
</svg>
